<svg width="371" height="178" viewBox="0 0 371 178" fill="none" xmlns="http://www.w3.org/2000/svg">
<path d="M217.663 36H351.663C353.32 36 354.663 37.3431 354.663 39V134H214.663V39C214.663 37.3431 216.006 36 217.663 36Z" fill="white" stroke="#E8EAED" stroke-width="2"/>
<path d="M354.663 53V134H214.663V53H354.663Z" fill="#F8F9FA" stroke="#E8EAED" stroke-width="2"/>
<circle cx="223.663" cy="45" r="2" fill="#E8EAED"/>
<rect x="235.663" y="69" width="84" height="28" rx="3" fill="white" stroke="#E8EAED" stroke-width="2"/>
<rect x="255.663" y="81" width="84" height="28" rx="3" fill="white" stroke="#E8EAED" stroke-width="2"/>
<path d="M269.787 101L269.933 96.7986L266.539 99.0521L265.663 97.4479L269.24 95.5L265.663 93.5521L266.539 91.9479L269.933 94.2014L269.787 90H271.539L271.393 94.2014L274.787 91.9479L275.663 93.5521L272.086 95.5L275.663 97.4479L274.787 99.0521L271.393 96.7986L271.539 101H269.787Z" fill="#E8EAED"/>
<path d="M287.787 101L287.933 96.7986L284.539 99.0521L283.663 97.4479L287.24 95.5L283.663 93.5521L284.539 91.9479L287.933 94.2014L287.787 90H289.539L289.393 94.2014L292.787 91.9479L293.663 93.5521L290.086 95.5L293.663 97.4479L292.787 99.0521L289.393 96.7986L289.539 101H287.787Z" fill="#E8EAED"/>
<path d="M305.787 101L305.933 96.7986L302.539 99.0521L301.663 97.4479L305.24 95.5L301.663 93.5521L302.539 91.9479L305.933 94.2014L305.787 90H307.539L307.393 94.2014L310.787 91.9479L311.663 93.5521L308.086 95.5L311.663 97.4479L310.787 99.0521L307.393 96.7986L307.539 101H305.787Z" fill="#E8EAED"/>
<path d="M323.787 101L323.933 96.7986L320.539 99.0521L319.663 97.4479L323.24 95.5L319.663 93.5521L320.539 91.9479L323.933 94.2014L323.787 90H325.539L325.393 94.2014L328.787 91.9479L329.663 93.5521L326.086 95.5L329.663 97.4479L328.787 99.0521L325.393 96.7986L325.539 101H323.787Z" fill="#E8EAED"/>
<rect x="122" y="145" width="62" height="5" fill="url(#paint0_linear_2787_7928)"/>
<path d="M182.469 50.129L145.589 65.3397C144.951 65.6028 144.497 66.1586 144.402 66.8421C143.63 72.378 140.717 98.1271 149.82 118.831C157.348 135.95 176.395 146.679 182.253 149.653C183.345 150.208 184.619 150.172 185.68 149.558C191.211 146.351 208.932 135.149 217.291 118.831C226.684 100.495 224.217 72.7704 223.56 66.8851C223.481 66.1771 223.02 65.5956 222.361 65.324L185.519 50.129C184.542 49.7261 183.446 49.7261 182.469 50.129Z" fill="url(#paint1_linear_2787_7928)"/>
<mask id="mask0_2787_7928" style="mask-type:alpha" maskUnits="userSpaceOnUse" x="145" y="55" width="77" height="78">
<rect x="145.354" y="55.9585" width="76.5451" height="76.5451" fill="#D9D9D9"/>
</mask>
<g mask="url(#mask0_2787_7928)">
<path d="M180.437 100.61V71.9055H186.815V100.61H180.437ZM180.437 116.557V110.178H186.815V116.557H180.437Z" fill="#3A4043"/>
</g>
<rect x="18.6628" y="131" width="38" height="5" fill="url(#paint2_linear_2787_7928)"/>
<rect x="67" y="131" width="27" height="5" fill="url(#paint3_linear_2787_7928)"/>
<line x1="244.663" y1="76" x2="244.663" y2="90" stroke="#E8EAED" stroke-width="2"/>
<rect x="67.1928" y="29.3696" width="48" height="96" rx="3" transform="rotate(30.569 67.1928 29.3696)" fill="white" stroke="#E8EAED" stroke-width="2"/>
<rect x="61.4782" y="38.7723" width="47.9647" height="74.5102" transform="rotate(30.5566 61.4782 38.7723)" fill="#F8F9FA" stroke="#E8EAED" stroke-width="2"/>
<line x1="79.0307" y1="43.6401" x2="89.3032" y2="49.6324" stroke="#E8EAED" stroke-width="2" stroke-linecap="round"/>
<rect x="28.6628" y="52" width="38" height="38" rx="3" fill="white" stroke="#E8EAED" stroke-width="2"/>
<mask id="mask1_2787_7928" style="mask-type:alpha" maskUnits="userSpaceOnUse" x="33" y="57" width="29" height="28">
<rect x="33.6631" y="57" width="28" height="28" fill="#D9D9D9"/>
</mask>
<g mask="url(#mask1_2787_7928)">
<path d="M40.6632 82.6667C40.0215 82.6667 39.4722 82.4383 39.0153 81.9813C38.5583 81.5244 38.3298 80.9751 38.3298 80.3334V68.6667C38.3298 68.0251 38.5583 67.4758 39.0153 67.0188C39.4722 66.5619 40.0215 66.3334 40.6632 66.3334H41.8298V64.0001C41.8298 62.3862 42.3986 61.0105 43.5361 59.873C44.6736 58.7355 46.0493 58.1667 47.6632 58.1667C49.2771 58.1667 50.6528 58.7355 51.7903 59.873C52.9278 61.0105 53.4965 62.3862 53.4965 64.0001V66.3334H54.6632C55.3048 66.3334 55.8541 66.5619 56.3111 67.0188C56.768 67.4758 56.9965 68.0251 56.9965 68.6667V80.3334C56.9965 80.9751 56.768 81.5244 56.3111 81.9813C55.8541 82.4383 55.3048 82.6667 54.6632 82.6667H40.6632ZM40.6632 80.3334H54.6632V68.6667H40.6632V80.3334ZM49.3111 76.148C49.768 75.6911 49.9965 75.1417 49.9965 74.5001C49.9965 73.8584 49.768 73.3091 49.3111 72.8522C48.8541 72.3952 48.3048 72.1667 47.6632 72.1667C47.0215 72.1667 46.4722 72.3952 46.0153 72.8522C45.5583 73.3091 45.3298 73.8584 45.3298 74.5001C45.3298 75.1417 45.5583 75.6911 46.0153 76.148C46.4722 76.6049 47.0215 76.8334 47.6632 76.8334C48.3048 76.8334 48.8541 76.6049 49.3111 76.148ZM44.1632 66.3334H51.1632V64.0001C51.1632 63.0279 50.8229 62.2015 50.1423 61.5209C49.4618 60.8404 48.6354 60.5001 47.6632 60.5001C46.6909 60.5001 45.8646 60.8404 45.184 61.5209C44.5034 62.2015 44.1632 63.0279 44.1632 64.0001V66.3334Z" fill="#E8EAED"/>
</g>
<circle cx="94.6631" cy="116" r="19" fill="white" stroke="#E8EAED" stroke-width="2"/>
<mask id="mask2_2787_7928" style="mask-type:alpha" maskUnits="userSpaceOnUse" x="81" y="103" width="28" height="27">
<rect x="81.6631" y="103" width="27" height="27" fill="#D9D9D9"/>
</mask>
<g mask="url(#mask2_2787_7928)">
<path d="M86.1631 124.375V122.125H88.4131V114.25C88.4131 112.694 88.8818 111.311 89.8193 110.102C90.7568 108.892 91.9756 108.1 93.4756 107.725V106.938C93.4756 106.469 93.6396 106.07 93.9678 105.742C94.2959 105.414 94.6943 105.25 95.1631 105.25C95.6318 105.25 96.0303 105.414 96.3584 105.742C96.6865 106.07 96.8506 106.469 96.8506 106.938V107.725C98.3506 108.1 99.5693 108.892 100.507 110.102C101.444 111.311 101.913 112.694 101.913 114.25V122.125H104.163V124.375H86.1631ZM95.1631 127.75C94.5443 127.75 94.0146 127.53 93.574 127.089C93.1334 126.648 92.9131 126.119 92.9131 125.5H97.4131C97.4131 126.119 97.1928 126.648 96.7521 127.089C96.3115 127.53 95.7818 127.75 95.1631 127.75ZM90.6631 122.125H99.6631V114.25C99.6631 113.012 99.2225 111.953 98.3412 111.072C97.46 110.191 96.4006 109.75 95.1631 109.75C93.9256 109.75 92.8662 110.191 91.985 111.072C91.1037 111.953 90.6631 113.012 90.6631 114.25V122.125Z" fill="#E8EAED"/>
</g>
<path d="M99.0166 89.6469C99.0166 89.6469 107.31 89.1476 114.663 96.5005C122.017 103.853 122.017 112.647 122.017 112.647" stroke="#E8EAED" stroke-width="2" stroke-linecap="round"/>
<defs>
<linearGradient id="paint0_linear_2787_7928" x1="122" y1="147.5" x2="184" y2="147.5" gradientUnits="userSpaceOnUse">
<stop stop-color="#FDFDFD" stop-opacity="0"/>
<stop offset="1" stop-color="#C5C8CD"/>
</linearGradient>
<linearGradient id="paint1_linear_2787_7928" x1="144.563" y1="94.8644" x2="223.425" y2="94.8644" gradientUnits="userSpaceOnUse">
<stop offset="0.485577" stop-color="#FF9500"/>
<stop offset="0.514423" stop-color="#FFA800"/>
</linearGradient>
<linearGradient id="paint2_linear_2787_7928" x1="18.6628" y1="133.5" x2="56.6628" y2="133.5" gradientUnits="userSpaceOnUse">
<stop stop-color="#FDFDFD" stop-opacity="0"/>
<stop offset="1" stop-color="#C5C8CD"/>
</linearGradient>
<linearGradient id="paint3_linear_2787_7928" x1="67" y1="133.5" x2="94" y2="133.5" gradientUnits="userSpaceOnUse">
<stop stop-color="#FDFDFD" stop-opacity="0"/>
<stop offset="1" stop-color="#C5C8CD"/>
</linearGradient>
</defs>
</svg>
