<svg width="200" height="120" viewBox="0 0 200 120" fill="none" xmlns="http://www.w3.org/2000/svg">
<rect width="200" height="120" fill="white"/>
<path d="M58.2403 61.1595C48.2585 62.6059 47.3008 63.7785 46.1198 76.0002C44.9387 63.7785 43.981 62.6059 34 61.1595C43.9813 59.7126 44.939 58.5406 46.1198 46.3188C47.3008 58.5406 48.2585 59.7129 58.2403 61.1595Z" fill="#2C4AE9"/>
<path d="M61.4134 50.5188C57.0287 51.1541 56.6086 51.6692 56.0894 57.0375C55.5707 51.6692 55.1498 51.1538 50.7656 50.5188C55.1498 49.8832 55.5707 49.3683 56.0894 44C56.6086 49.3683 57.0287 49.8832 61.4134 50.5188Z" fill="#2C4AE9"/>
<path d="M78.3359 72H74.5703V52.3438H67.8828V49.1562H85.0078V52.3438H78.3359V72ZM96.4297 72H92.6641V52.3438H85.9766V49.1562H103.102V52.3438H96.4297V72ZM125.148 60.3594C125.148 62.9323 124.669 65.0833 123.711 66.8125C122.753 68.5312 121.362 69.8281 119.539 70.7031C117.716 71.5677 115.518 72 112.945 72H106.602V49.1562H113.633C115.997 49.1562 118.039 49.5833 119.758 50.4375C121.477 51.2812 122.805 52.5365 123.742 54.2031C124.68 55.8594 125.148 57.9115 125.148 60.3594ZM121.242 60.4688C121.242 58.5938 120.945 57.0521 120.352 55.8438C119.768 54.6354 118.904 53.7396 117.758 53.1562C116.622 52.5625 115.221 52.2656 113.555 52.2656H110.352V68.8594H113.008C115.768 68.8594 117.831 68.1562 119.195 66.75C120.56 65.3438 121.242 63.25 121.242 60.4688ZM152.539 72L150.305 65.6562H141.57L139.336 72H135.383L143.883 49.0625H148.039L156.523 72H152.539ZM149.336 62.4375L147.164 56.1875C147.081 55.9167 146.961 55.5365 146.805 55.0469C146.648 54.5469 146.492 54.0417 146.336 53.5312C146.18 53.0104 146.049 52.5729 145.945 52.2188C145.841 52.6458 145.711 53.125 145.555 53.6562C145.409 54.1771 145.263 54.6667 145.117 55.125C144.982 55.5833 144.878 55.9375 144.805 56.1875L142.617 62.4375H149.336ZM159.539 72V49.1562H163.289V72H159.539Z" fill="#17253D"/>
</svg>
